<?xml version="1.0" standalone="no"?>
<!DOCTYPE svg PUBLIC "-//W3C//DTD SVG 20010904//EN"
 "http://www.w3.org/TR/2001/REC-SVG-20010904/DTD/svg10.dtd">
<svg version="1.0" xmlns="http://www.w3.org/2000/svg"
 width="512.000000pt" height="512.000000pt" viewBox="0 0 512.000000 512.000000"
 preserveAspectRatio="xMidYMid meet">

<g transform="translate(0.000000,512.000000) scale(0.100000,-0.100000)"
fill="#000000" stroke="none">
<path d="M1328 3650 c-245 -31 -471 -142 -648 -320 -435 -434 -435 -1116 0
-1550 433 -434 1117 -435 1551 -1 326 326 417 808 230 1225 -111 247 -342 469
-594 572 -158 64 -378 95 -539 74z m162 -218 l0 -38 -67 -2 c-307 -11 -578
-187 -718 -467 -61 -124 -77 -187 -82 -340 -4 -110 -2 -144 16 -220 68 -285
278 -511 566 -612 75 -26 91 -27 245 -28 146 0 174 3 240 23 226 71 413 229
516 437 50 102 87 234 82 297 l-3 43 -277 3 -278 2 0 35 0 35 318 -2 317 -3
-3 -85 c-8 -218 -107 -445 -262 -600 -312 -312 -830 -350 -1185 -88 -159 118
-264 266 -331 468 -27 81 -28 94 -28 265 0 171 1 184 28 265 132 397 445 628
879 649 25 1 27 -2 27 -37z m-311 -427 c48 -24 70 -111 41 -164 -15 -30 -69
-61 -103 -61 -66 0 -127 57 -127 118 0 94 102 152 189 107z m313 -412 l3 -428
113 -3 112 -3 0 -34 0 -35 -150 0 -150 0 0 465 0 465 35 0 35 0 2 -427z"/>
<path d="M4195 3129 c-215 -25 -364 -142 -436 -345 -33 -93 -38 -302 -10 -414
28 -114 62 -179 128 -250 99 -108 240 -155 390 -132 93 15 148 39 201 87 l41
36 3 -48 3 -48 125 0 125 0 0 310 0 310 -240 0 -240 0 0 -100 0 -100 106 -3
106 -3 -8 -46 c-25 -130 -136 -204 -261 -173 -99 25 -160 115 -180 266 -20
158 17 310 93 378 42 39 86 51 160 44 63 -6 97 -31 128 -91 l23 -48 152 3 151
3 -2 42 c-6 132 -141 266 -311 307 -79 19 -164 24 -247 15z"/>
<path d="M2895 3098 c-3 -7 -4 -254 -3 -548 l3 -535 390 0 390 0 0 120 0 120
-242 3 -243 2 -2 423 -3 422 -143 3 c-108 2 -144 0 -147 -10z"/>
</g>
</svg>
