<?xml version="1.0" ?><svg viewBox="0 0 64 64" xmlns="http://www.w3.org/2000/svg"><title/><g data-name="2-Ruler" id="_2-Ruler"><path d="M45.44,5.84,5.84,45.44,18.56,58.16l39.6-39.6ZM18.56,55.33,8.67,45.44l2.82-2.83L15,46.14l1.41-1.41-3.53-3.54,2.83-2.83,5,5L22.1,41.9l-5-4.95L20,34.12l3.53,3.54,1.42-1.42-3.54-3.53,2.83-2.83,5,4.95,1.42-1.42-4.95-4.95,2.82-2.82L32,29.17l1.41-1.41-3.53-3.54,2.83-2.83,4.95,4.95,1.41-1.41-5-4.95L37,17.15l3.54,3.54,1.41-1.42-3.54-3.53,2.83-2.83,5,4.95,1.42-1.42-5-5,2.83-2.82,9.89,9.89Z"/></g></svg>